<?xml version="1.0" encoding="UTF-8"?>
<svg id="Layer_1" data-name="Layer 1" xmlns="http://www.w3.org/2000/svg" viewBox="0 0 47.98 47.98">
  <defs>
    <style>
      .cls-1 {
        fill: none;
      }

      .cls-2 {
        fill: #10bc4c;
        fill-rule: evenodd;
      }
    </style>
  </defs>
  <g id="_4_stroke" data-name="4 stroke">
    <g id="Spotify">
      <rect class="cls-1" width="47.98" height="47.98"/>
      <path id="Spotify-2" data-name="Spotify" class="cls-2" d="m23.99,0C10.79,0,0,10.79,0,23.99s10.79,23.99,23.99,23.99,23.99-10.79,23.99-23.99S37.3,0,23.99,0m11.03,34.66c-.48.72-1.32.96-2.04.48-5.64-3.48-12.71-4.2-21.11-2.28-.84.24-1.56-.36-1.8-1.08-.24-.84.36-1.56,1.08-1.8,9.12-2.04,17.03-1.2,23.27,2.64.84.36.96,1.32.6,2.04m2.88-6.6c-.6.84-1.68,1.2-2.52.6-6.48-3.96-16.31-5.16-23.87-2.76-.96.24-2.04-.24-2.28-1.2-.24-.96.24-2.04,1.2-2.28,8.76-2.64,19.55-1.32,26.99,3.24.72.36,1.08,1.56.48,2.4m.24-6.72c-7.68-4.56-20.51-5.04-27.83-2.76-1.2.36-2.4-.36-2.76-1.44-.36-1.2.36-2.4,1.44-2.76,8.52-2.52,22.55-2.04,31.43,3.24,1.08.6,1.44,2.04.84,3.12-.6.84-2.04,1.2-3.12.6"/>
    </g>
  </g>
</svg>